<?xml version="1.0" encoding="UTF-8"?>
<!-- Generator: visioncortex VTracer 0.6.3 -->
<svg version="1.1" xmlns="http://www.w3.org/2000/svg" width="1280" height="1280">
<path d="M0 0 C0.9 -0 1.8 -0.01 2.73 -0.01 C4.17 -0.01 4.17 -0.01 5.64 -0 C6.64 -0 7.64 -0.01 8.67 -0.01 C10.78 -0.01 12.9 -0.01 15.01 -0 C18.23 0 21.45 -0 24.67 -0.01 C26.72 -0.01 28.78 -0.01 30.83 -0 C31.79 -0.01 32.75 -0.01 33.74 -0.01 C38.39 0.01 42.73 0.24 47.3 1.13 C50.1 1.28 52.89 1.4 55.68 1.5 C67.31 2.02 78.78 3.54 90.3 5.13 C91.01 5.22 91.71 5.32 92.44 5.42 C99.05 6.3 105.42 7.59 111.86 9.3 C114.44 9.92 116.98 10.46 119.59 10.93 C132.85 13.34 145.53 17.02 158.35 21.17 C160.89 21.99 163.43 22.8 165.98 23.59 C184.98 29.63 203.78 36.87 221.42 46.17 C224.96 47.97 228.58 49.6 232.18 51.25 C237.59 53.77 242.78 56.42 247.84 59.61 C250.65 61.34 253.53 62.91 256.43 64.5 C266.51 70.16 276 76.79 285.56 83.27 C287.95 84.89 290.34 86.49 292.74 88.09 C293.93 88.9 295.12 89.7 296.3 90.5 C297.29 91.17 298.28 91.84 299.3 92.53 C299.96 93.06 300.62 93.58 301.3 94.13 C301.3 94.79 301.3 95.45 301.3 96.13 C302.03 96.39 302.76 96.65 303.5 96.91 C306.43 98.18 308.61 99.67 311.12 101.63 C311.91 102.24 312.7 102.85 313.51 103.47 C314.1 104.02 314.7 104.57 315.3 105.13 C315.3 105.79 315.3 106.45 315.3 107.13 C315.86 107.37 316.41 107.62 316.98 107.87 C321.9 110.54 326.03 114.53 330.3 118.13 C331.13 118.82 331.95 119.5 332.8 120.21 C333.89 121.13 333.89 121.13 334.99 122.07 C335.64 122.61 336.28 123.16 336.94 123.72 C338.3 125.13 338.3 125.13 338.3 127.13 C338.88 127.38 339.45 127.62 340.04 127.88 C342.68 129.34 344.47 131.05 346.61 133.2 C347.42 134.01 348.23 134.83 349.07 135.67 C349.91 136.52 350.75 137.38 351.62 138.25 C352.45 139.08 353.28 139.91 354.13 140.77 C367.7 154.43 367.7 154.43 370.3 160.13 C370.96 160.13 371.62 160.13 372.3 160.13 C374.03 162.03 374.03 162.03 375.93 164.5 C376.56 165.32 377.19 166.13 377.84 166.97 C379.3 169.13 379.3 169.13 379.3 171.13 C379.96 171.13 380.62 171.13 381.3 171.13 C383.03 173.03 383.03 173.03 384.93 175.5 C385.56 176.32 386.19 177.13 386.84 177.97 C388.3 180.13 388.3 180.13 388.3 182.13 C388.96 182.13 389.62 182.13 390.3 182.13 C392.03 184.25 392.03 184.25 393.93 187 C394.56 187.91 395.19 188.81 395.84 189.75 C397.3 192.13 397.3 192.13 397.3 194.13 C397.96 194.13 398.62 194.13 399.3 194.13 C400.6 195.78 400.6 195.78 402.05 198.06 C402.85 199.29 402.85 199.29 403.66 200.56 C404.21 201.41 404.75 202.25 405.3 203.13 C406.29 204.62 407.28 206.12 408.28 207.61 C419.43 224.54 430.04 241.6 438.37 260.11 C439.99 263.62 441.75 267.06 443.49 270.5 C450.63 284.7 456.48 299.16 461.35 314.29 C462.09 316.48 462.88 318.65 463.71 320.81 C475.57 352.23 483.4 387.79 485.09 421.38 C485.21 424 485.21 424 485.8 425.93 C486.43 428.65 486.52 431.23 486.62 434.02 C486.66 435.19 486.71 436.36 486.75 437.57 C486.81 439.46 486.81 439.46 486.87 441.38 C486.91 442.68 486.95 443.99 486.99 445.33 C487.52 462.53 487.42 479.68 486.87 496.88 C486.83 498.14 486.79 499.39 486.75 500.69 C486.71 501.86 486.66 503.03 486.62 504.24 C486.57 505.8 486.57 505.8 486.51 507.39 C486.33 509.78 485.93 511.83 485.3 514.13 C485.15 516.11 485.03 518.09 484.93 520.07 C482.85 550.34 475.42 580.45 466.68 609.44 C466.39 610.4 466.1 611.36 465.8 612.36 C464.24 617.44 462.45 622.26 460.3 627.13 C459.66 629.02 459.03 630.91 458.43 632.82 C456.38 639.07 453.9 645.08 451.3 651.13 C450.85 652.22 450.4 653.31 449.93 654.43 C446.12 663.55 441.82 672.35 437.3 681.13 C436.93 681.87 436.55 682.61 436.16 683.37 C426.83 701.65 416.3 719.08 404.72 736.02 C403.69 737.55 402.69 739.1 401.69 740.65 C401.16 741.47 400.63 742.3 400.08 743.15 C399.35 744.29 399.35 744.29 398.61 745.45 C398.18 746.01 397.75 746.56 397.3 747.13 C396.64 747.13 395.98 747.13 395.3 747.13 C395.11 747.79 394.92 748.44 394.72 749.12 C392.71 753.4 389.77 756.71 386.74 760.32 C385.55 761.75 384.36 763.18 383.18 764.61 C382.65 765.24 382.12 765.87 381.58 766.51 C380.23 768.12 380.23 768.12 379.3 770.13 C378.64 770.13 377.98 770.13 377.3 770.13 C377.07 770.68 376.83 771.24 376.59 771.81 C374.99 774.69 372.99 776.84 370.74 779.25 C367.67 782.44 367.67 782.44 365.3 786.13 C364.64 786.13 363.98 786.13 363.3 786.13 C363.06 786.7 362.82 787.26 362.57 787.85 C361.05 790.58 359.23 792.46 357.02 794.68 C356.18 795.52 355.34 796.36 354.47 797.23 C353.59 798.11 352.71 798.98 351.8 799.88 C350.92 800.77 350.04 801.66 349.14 802.57 C347.87 803.83 347.87 803.83 346.59 805.11 C345.81 805.88 345.04 806.65 344.24 807.45 C342.3 809.13 342.3 809.13 340.3 809.13 C340.3 809.79 340.3 810.45 340.3 811.13 C339.64 811.13 338.98 811.13 338.3 811.13 C337.97 812.12 337.64 813.11 337.3 814.13 C336.64 814.13 335.98 814.13 335.3 814.13 C335.3 814.79 335.3 815.45 335.3 816.13 C333.73 817.54 332.09 818.89 330.43 820.19 C326.7 823.17 323.1 826.19 319.62 829.44 C313.58 834.92 307.07 839.71 300.5 844.52 C298.27 846.15 296.05 847.79 293.84 849.43 C284.91 855.99 275.84 862.14 266.37 867.87 C264.19 869.2 262.03 870.55 259.87 871.91 C250.88 877.53 241.8 882.6 232.25 887.18 C230.32 888.12 228.4 889.1 226.49 890.08 C207.59 899.8 187.78 908.23 167.37 914.17 C165.11 914.88 162.88 915.68 160.66 916.53 C155.39 918.53 149.99 920.05 144.55 921.57 C143.46 921.87 142.36 922.18 141.23 922.5 C132.02 925.03 122.77 926.97 113.39 928.72 C110.52 929.28 107.7 929.98 104.87 930.69 C95.8 932.83 86.54 933.94 77.3 935.13 C76.49 935.24 75.68 935.34 74.84 935.45 C65.98 936.61 57.37 937.28 48.41 937.13 C43.37 937.08 38.34 937.37 33.3 937.63 C30.51 937.76 27.71 937.88 24.92 938.01 C23.25 938.09 21.58 938.17 19.91 938.26 C17.81 938.36 15.71 938.44 13.62 938.5 C12.46 938.55 11.3 938.6 10.11 938.65 C7.3 938.13 7.3 938.13 5.67 935.98 C4.15 932.8 3.82 930.58 3.65 927.07 C3.58 925.83 3.52 924.59 3.45 923.31 C3.4 921.92 3.35 920.52 3.3 919.13 C3.27 918.04 3.27 918.04 3.23 916.92 C3.05 910.95 2.93 904.98 2.82 899 C2.78 897.01 2.75 895.02 2.71 893.03 C2.6 887.65 2.5 882.28 2.4 876.91 C2.29 871.27 2.18 865.63 2.07 859.98 C1.88 850.51 1.7 841.04 1.52 831.57 C1.29 819.44 1.05 807.31 0.82 795.18 C0.61 784.72 0.41 774.26 0.21 763.79 C0.14 760.44 0.08 757.1 0.02 753.75 C-0.09 748.48 -0.19 743.21 -0.29 737.94 C-0.32 736.01 -0.36 734.08 -0.4 732.16 C-0.45 729.51 -0.5 726.87 -0.55 724.22 C-0.57 723.1 -0.57 723.1 -0.6 721.95 C-0.71 715.67 -0.7 709.41 -0.7 703.13 C13.82 703.13 28.34 703.13 43.3 703.13 C44.21 721.74 44.66 740.34 45.01 758.96 C45.09 763.15 45.17 767.34 45.26 771.53 C45.39 778.54 45.53 785.56 45.66 792.57 C45.82 800.65 45.97 808.73 46.13 816.81 C46.3 825.48 46.47 834.14 46.64 842.81 C46.68 845.28 46.73 847.76 46.78 850.23 C46.86 854.12 46.93 858.02 47 861.91 C47.03 863.33 47.06 864.75 47.09 866.17 C47.25 874.49 47.34 882.81 47.3 891.13 C65.54 889.93 83.59 888.63 101.3 883.88 C104.88 882.99 108.49 882.33 112.12 881.69 C118.91 880.49 125.47 878.81 132.1 876.9 C134.99 876.2 137.35 875.97 140.3 876.13 C140.3 875.47 140.3 874.81 140.3 874.13 C140.92 873.92 141.53 873.71 142.16 873.49 C158.04 868.02 158.04 868.02 173.8 862.2 C177.94 860.63 182.11 859.18 186.3 857.75 C194.33 854.91 201.77 851.06 209.3 847.13 C211.24 846.12 213.18 845.12 215.12 844.13 C216.24 843.54 216.24 843.54 217.39 842.94 C219.3 842.13 219.3 842.13 222.3 842.13 C222.3 841.47 222.3 840.81 222.3 840.13 C222.82 839.88 223.34 839.62 223.88 839.36 C227.04 837.8 230.12 836.25 233.12 834.38 C235.3 833.13 235.3 833.13 238.3 833.13 C238.3 832.47 238.3 831.81 238.3 831.13 C240.61 829.4 240.61 829.4 243.62 827.5 C244.6 826.87 245.59 826.24 246.61 825.59 C249.3 824.13 249.3 824.13 252.3 824.13 C252.3 823.47 252.3 822.81 252.3 822.13 C253.97 820.96 255.69 819.87 257.43 818.82 C260.76 816.77 263.92 814.76 266.87 812.19 C269.3 810.13 269.3 810.13 271.3 810.13 C271.3 809.47 271.3 808.81 271.3 808.13 C271.96 808.13 272.62 808.13 273.3 808.13 C273.3 807.47 273.3 806.81 273.3 806.13 C275.2 804.4 275.2 804.4 277.68 802.5 C278.49 801.87 279.3 801.24 280.14 800.59 C282.3 799.13 282.3 799.13 284.3 799.13 C284.3 798.47 284.3 797.81 284.3 797.13 C287.77 794.13 287.77 794.13 290.3 794.13 C290.3 793.47 290.3 792.81 290.3 792.13 C295.78 787.13 295.78 787.13 298.3 787.13 C298.3 786.47 298.3 785.81 298.3 785.13 C299.7 783.72 299.7 783.72 301.68 782.07 C302.41 781.44 303.14 780.82 303.89 780.18 C304.69 779.5 305.49 778.83 306.3 778.13 C315.58 769.98 324.27 761.51 332.3 752.13 C333.4 750.87 334.5 749.62 335.59 748.36 C336.79 746.99 337.98 745.62 339.18 744.25 C339.76 743.59 340.35 742.92 340.95 742.23 C341.5 741.6 342.05 740.97 342.61 740.32 C343.1 739.76 343.6 739.19 344.11 738.61 C345.4 737.12 345.4 737.12 346.3 735.13 C346.96 735.13 347.62 735.13 348.3 735.13 C348.53 734.44 348.75 733.76 348.98 733.05 C350.64 729.4 352.97 726.52 355.49 723.44 C356.5 722.18 357.51 720.92 358.51 719.66 C359.24 718.74 359.24 718.74 359.98 717.81 C370.32 704.67 379.65 689.98 387.3 675.13 C388.24 673.42 389.17 671.71 390.1 670 C397.21 656.9 403.58 643.45 408.97 629.55 C410.22 626.33 411.56 623.17 412.93 620 C415.1 614.84 416.77 609.61 418.31 604.23 C419.3 601.13 419.3 601.13 420.71 597.95 C428.2 580.88 431.15 561.38 434.3 543.13 C434.59 541.54 434.59 541.54 434.87 539.92 C435.43 536.77 435.96 533.6 436.49 530.44 C436.65 529.54 436.8 528.64 436.96 527.72 C439.91 509.4 440.64 490.97 440.57 472.44 C440.55 469.13 440.57 465.82 440.58 462.51 C441.25 439.53 441.25 439.53 437.3 417.13 C437.01 415.05 436.74 412.97 436.49 410.88 C430.79 366.8 417.87 322.57 397.3 283.06 C396.25 281.03 395.24 278.99 394.24 276.94 C390.88 270.11 387.48 263.45 383.34 257.05 C382.3 255.13 382.3 255.13 382.3 252.13 C381.64 252.13 380.98 252.13 380.3 252.13 C380.03 251.57 379.76 251.01 379.48 250.43 C370.08 232.06 356.57 213.55 342.41 198.51 C341.3 197.13 341.3 197.13 341.3 195.13 C340.64 195.13 339.98 195.13 339.3 195.13 C337.81 193.45 336.38 191.71 334.99 189.94 C332.6 186.91 330.27 184.09 327.51 181.39 C325.3 179.13 325.3 179.13 325.3 177.13 C324.64 177.13 323.98 177.13 323.3 177.13 C323.3 176.47 323.3 175.81 323.3 175.13 C322.31 174.8 321.32 174.47 320.3 174.13 C320.3 173.47 320.3 172.81 320.3 172.13 C319.64 172.13 318.98 172.13 318.3 172.13 C318.3 171.47 318.3 170.81 318.3 170.13 C317.64 170.13 316.98 170.13 316.3 170.13 C316.3 169.47 316.3 168.81 316.3 168.13 C315.64 168.13 314.98 168.13 314.3 168.13 C314.3 167.47 314.3 166.81 314.3 166.13 C313.31 165.8 312.32 165.47 311.3 165.13 C311.3 164.47 311.3 163.81 311.3 163.13 C310.64 163.13 309.98 163.13 309.3 163.13 C309.3 162.47 309.3 161.81 309.3 161.13 C308.5 160.81 308.5 160.81 307.69 160.48 C304.43 158.63 301.88 156.13 299.18 153.57 C295.54 149.94 295.54 149.94 291.3 147.13 C291.3 146.47 291.3 145.81 291.3 145.13 C288.83 144.14 288.83 144.14 286.3 143.13 C286.3 142.47 286.3 141.81 286.3 141.13 C285.54 140.79 285.54 140.79 284.76 140.44 C281.33 138.61 278.22 136.38 275.05 134.13 C274.41 133.68 273.76 133.23 273.09 132.76 C271.45 131.6 269.87 130.37 268.3 129.13 C268.3 128.47 268.3 127.81 268.3 127.13 C267.58 126.87 266.85 126.61 266.1 126.34 C263.2 125.09 261.11 123.62 258.62 121.69 C251.49 116.39 243.91 111.89 236.3 107.33 C234.69 106.36 233.09 105.37 231.49 104.38 C225.35 100.56 218.95 97.37 212.47 94.19 C209.85 92.9 207.25 91.59 204.67 90.23 C175.02 74.73 141.55 62.7 108.59 56.73 C106.06 56.27 103.58 55.75 101.08 55.18 C51.11 43.95 -1.76 44.34 -52.13 52.57 C-53.4 52.77 -54.67 52.98 -55.98 53.19 C-62.52 54.29 -68.87 55.6 -75.25 57.44 C-78.76 58.43 -82.32 59.21 -85.88 60 C-93.01 61.64 -99.96 63.66 -106.91 65.91 C-110.41 67.04 -113.92 68.09 -117.45 69.13 C-122.63 70.72 -127.57 72.64 -132.55 74.79 C-135.37 75.99 -138.21 77.14 -141.06 78.26 C-144.28 79.53 -147.49 80.83 -150.7 82.13 C-151.31 82.38 -151.93 82.63 -152.57 82.89 C-164.18 87.62 -175.08 93.53 -186.02 99.64 C-188.78 101.18 -191.56 102.67 -194.34 104.17 C-199.03 106.73 -203.55 109.45 -208.01 112.38 C-208.73 112.85 -209.45 113.32 -210.19 113.8 C-218.29 119.12 -226.16 124.76 -233.94 130.53 C-234.93 131.27 -235.92 132 -236.95 132.75 C-237.82 133.41 -238.69 134.06 -239.59 134.73 C-241.7 136.13 -241.7 136.13 -243.7 136.13 C-243.7 136.79 -243.7 137.45 -243.7 138.13 C-245.39 139.65 -245.39 139.65 -247.82 141.5 C-259.47 150.58 -270.27 160.39 -280.66 170.89 C-282.55 172.79 -284.44 174.69 -286.34 176.59 C-287.55 177.8 -288.76 179.02 -289.96 180.23 C-290.53 180.8 -291.09 181.36 -291.67 181.94 C-294.53 184.77 -294.53 184.77 -296.7 188.13 C-297.36 188.13 -298.02 188.13 -298.7 188.13 C-298.92 188.67 -299.15 189.21 -299.39 189.77 C-301.07 192.81 -303.29 195.28 -305.57 197.88 C-323.8 219.03 -339.32 242.74 -352.66 267.24 C-353.68 269.1 -354.71 270.94 -355.75 272.79 C-360.41 281.2 -364.23 289.84 -367.88 298.74 C-369.31 302.23 -370.84 305.66 -372.45 309.07 C-374.61 313.75 -376.23 318.53 -377.8 323.43 C-378.7 326.13 -378.7 326.13 -380.2 329.5 C-382.12 334.16 -383.38 338.93 -384.73 343.78 C-385.64 346.94 -386.71 349.96 -387.91 353.02 C-389.75 357.97 -391.18 363.07 -392.7 368.13 C-392.93 368.84 -393.16 369.56 -393.4 370.3 C-395.62 377.31 -396.98 384.39 -398.26 391.63 C-398.67 393.95 -399.09 396.28 -399.51 398.6 C-399.81 400.27 -399.81 400.27 -400.11 401.97 C-400.63 404.8 -401.21 407.61 -401.81 410.43 C-402.72 414.9 -403.08 419.27 -403.26 423.82 C-403.32 425.24 -403.38 426.66 -403.45 428.08 C-403.47 428.69 -403.5 429.3 -403.52 429.93 C-403.66 431.75 -403.92 433.56 -404.2 435.35 C-404.66 438.87 -404.82 442.18 -404.82 445.72 C-404.83 447.62 -404.83 447.62 -404.83 449.55 C-404.83 450.91 -404.83 452.28 -404.83 453.64 C-404.83 455.05 -404.83 456.46 -404.83 457.88 C-404.83 460.83 -404.83 463.78 -404.83 466.73 C-404.82 470.5 -404.82 474.27 -404.83 478.05 C-404.83 480.96 -404.83 483.87 -404.83 486.79 C-404.83 488.18 -404.83 489.57 -404.83 490.96 C-404.83 492.91 -404.83 494.85 -404.82 496.8 C-404.82 497.9 -404.82 499.01 -404.82 500.15 C-404.7 502.93 -404.29 505.42 -403.7 508.13 C-403.43 511.67 -403.25 515.21 -403.07 518.75 C-402.3 529.54 -400.02 540.25 -398.13 550.88 C-397.91 552.15 -397.69 553.42 -397.46 554.72 C-397.25 555.92 -397.04 557.13 -396.82 558.36 C-396.62 559.45 -396.43 560.53 -396.24 561.65 C-395.94 564.06 -395.94 564.06 -394.7 565.13 C-394.14 567.47 -393.62 569.83 -393.13 572.19 C-392.86 573.48 -392.59 574.77 -392.32 576.1 C-392.11 577.1 -391.91 578.1 -391.7 579.13 C-383.97 577.6 -376.65 575.24 -369.19 572.73 C-367.85 572.28 -366.5 571.83 -365.16 571.38 C-362.28 570.42 -359.4 569.46 -356.52 568.49 C-351.93 566.95 -347.34 565.41 -342.76 563.88 C-333.81 560.89 -324.87 557.89 -315.92 554.9 C-304.61 551.11 -293.3 547.32 -281.99 543.54 C-278.19 542.27 -274.4 541 -270.6 539.72 C-251.37 533.27 -232.1 527.04 -212.7 521.13 C-212.01 523.35 -211.33 525.57 -210.65 527.8 C-210.27 529.04 -209.89 530.27 -209.5 531.55 C-208.91 533.5 -208.31 535.44 -207.72 537.39 C-205.57 544.43 -203.37 551.34 -200.4 558.08 C-199.7 560.13 -199.7 560.13 -199.7 564.13 C-200.25 564.31 -200.81 564.49 -201.38 564.68 C-229.17 573.73 -256.93 582.84 -284.65 592.09 C-286.5 592.71 -286.5 592.71 -288.38 593.34 C-297.09 596.25 -305.8 599.16 -314.51 602.07 C-323.38 605.03 -332.26 608 -341.14 610.96 C-344.62 612.13 -348.11 613.29 -351.59 614.46 C-353.72 615.17 -355.84 615.88 -357.97 616.59 C-358.91 616.9 -359.86 617.22 -360.83 617.54 C-366.03 619.28 -371.25 620.92 -376.51 622.46 C-379.21 623.29 -381.84 624.27 -384.47 625.28 C-387.22 626.33 -390 627.33 -392.77 628.32 C-393.85 628.71 -394.93 629.1 -396.04 629.49 C-398.28 630.3 -400.52 631.1 -402.76 631.9 C-403.84 632.29 -404.91 632.67 -406.02 633.07 C-406.99 633.42 -407.96 633.77 -408.96 634.12 C-410.78 634.79 -412.59 635.5 -414.37 636.25 C-416.96 637.23 -418.95 637.29 -421.7 637.13 C-424.09 631.41 -426.22 625.72 -427.89 619.75 C-428.57 617.54 -429.32 615.42 -430.14 613.27 C-439.27 589.19 -444.14 562.57 -447.7 537.13 C-447.84 536.13 -447.98 535.12 -448.13 534.09 C-454.66 487.14 -455.84 432.35 -444.32 386.19 C-442.7 379.42 -441.43 372.59 -440.23 365.73 C-439.32 360.73 -438.09 356.05 -436.41 351.26 C-435.32 348.01 -434.55 344.72 -433.76 341.38 C-431.39 331.65 -428.65 322.12 -424.8 312.86 C-423.75 310.26 -422.79 307.64 -421.84 305 C-415.93 288.74 -408.97 272.74 -400.59 257.6 C-398.87 254.46 -397.27 251.29 -395.7 248.07 C-392.14 240.77 -388.25 233.82 -383.86 226.97 C-382.55 224.9 -381.26 222.82 -379.98 220.73 C-370.79 205.87 -360.84 191.6 -349.7 178.13 C-348.17 176.28 -346.65 174.42 -345.13 172.57 C-344.39 171.66 -343.64 170.76 -342.87 169.82 C-340.2 166.52 -337.64 163.13 -335.11 159.71 C-334.41 158.93 -334.41 158.93 -333.7 158.13 C-333.04 158.13 -332.38 158.13 -331.7 158.13 C-331.44 157.56 -331.18 156.98 -330.91 156.4 C-329.58 153.92 -328.04 152 -326.2 149.88 C-325.59 149.17 -324.98 148.47 -324.35 147.74 C-322.7 146.13 -322.7 146.13 -320.7 146.13 C-320.7 145.47 -320.7 144.81 -320.7 144.13 C-320.04 144.13 -319.38 144.13 -318.7 144.13 C-318.37 143.14 -318.04 142.15 -317.7 141.13 C-317.04 141.13 -316.38 141.13 -315.7 141.13 C-315.7 140.47 -315.7 139.81 -315.7 139.13 C-315.04 139.13 -314.38 139.13 -313.7 139.13 C-313.7 138.47 -313.7 137.81 -313.7 137.13 C-313.04 137.13 -312.38 137.13 -311.7 137.13 C-311.43 136.49 -311.16 135.85 -310.88 135.19 C-309.7 133.13 -309.7 133.13 -306.7 132.13 C-306.7 131.47 -306.7 130.81 -306.7 130.13 C-306.04 130.13 -305.38 130.13 -304.7 130.13 C-304.7 129.47 -304.7 128.81 -304.7 128.13 C-303.3 126.72 -303.3 126.72 -301.32 125.07 C-298.12 122.35 -294.98 119.59 -291.88 116.75 C-272.07 98.9 -250.18 83.21 -227.49 69.25 C-225.87 68.24 -224.28 67.19 -222.7 66.13 C-221.71 66.13 -220.72 66.13 -219.7 66.13 C-219.7 65.47 -219.7 64.81 -219.7 64.13 C-218.94 63.77 -218.19 63.4 -217.42 63.03 C-216.4 62.53 -215.37 62.02 -214.32 61.5 C-213.32 61.02 -212.32 60.53 -211.3 60.03 C-208.43 58.57 -205.71 56.94 -202.98 55.26 C-197.67 52.04 -192.19 49.33 -186.57 46.69 C-185.56 46.22 -184.56 45.74 -183.52 45.25 C-163.22 35.69 -142.64 27.95 -121.32 20.99 C-119.21 20.3 -117.11 19.6 -115.01 18.91 C-105.91 15.98 -96.61 13.84 -87.29 11.72 C-84.98 11.2 -82.69 10.65 -80.39 10.1 C-58.62 5.05 -35.63 1.78 -13.29 1.27 C-9.87 1.23 -9.87 1.23 -7.26 0.63 C-4.77 0.14 -2.54 0 0 0 Z " fill="#FEFEFE" transform="translate(626.695068359375,152.87060546875)"/>
<path d="M0 0 C4.76 4.23 7.65 9.08 10.81 14.56 C14.87 21.49 19.04 28.22 23.67 34.79 C25 37 25 37 25 40 C22.66 42.26 22.66 42.26 19.62 44.69 C18.63 45.5 17.63 46.3 16.6 47.14 C14 49 14 49 12 49 C12 49.66 12 50.32 12 51 C10.63 52.35 10.63 52.35 8.68 53.95 C3.19 58.62 -1.85 63.71 -6.94 68.81 C-7.9 69.78 -8.87 70.74 -9.84 71.7 C-10.75 72.61 -11.65 73.52 -12.59 74.46 C-13.41 75.28 -14.24 76.11 -15.09 76.96 C-17.05 78.85 -17.05 78.85 -18 81 C-18.66 81 -19.32 81 -20 81 C-20.25 81.55 -20.49 82.11 -20.75 82.68 C-22.24 85.45 -24.07 87.7 -26.06 90.12 C-28.8 93.39 -28.8 93.39 -31 97 C-31.66 97 -32.32 97 -33 97 C-33.27 97.56 -33.53 98.13 -33.81 98.71 C-35.08 101.15 -36.51 103.38 -38.05 105.67 C-38.64 106.56 -39.24 107.46 -39.86 108.38 C-40.48 109.3 -41.11 110.23 -41.75 111.19 C-42.36 112.1 -42.97 113 -43.59 113.94 C-48.63 121.45 -48.63 121.45 -50.69 124.48 C-53.36 128.43 -55.82 132.31 -57.88 136.62 C-59.78 140.55 -61.76 144.41 -63.86 148.23 C-68.98 157.52 -73.03 167.18 -77 177 C-77.41 178 -77.82 179.01 -78.25 180.04 C-79.19 182.35 -80.1 184.67 -81 187 C-81.31 187.79 -81.63 188.59 -81.95 189.41 C-85 197.42 -87.21 205.65 -89.43 213.93 C-89.97 215.89 -90.56 217.85 -91.15 219.8 C-92.17 223.09 -92.17 223.09 -92 227 C-91.36 227.1 -90.71 227.2 -90.05 227.3 C-83.35 228.32 -76.65 229.34 -69.95 230.36 C-67.45 230.75 -64.94 231.13 -62.44 231.51 C-58.85 232.05 -55.26 232.6 -51.67 233.15 C-49.99 233.41 -49.99 233.41 -48.27 233.67 C-47.23 233.83 -46.19 233.99 -45.11 234.15 C-44.2 234.29 -43.28 234.43 -42.33 234.58 C-40 235 -40 235 -37 236 C-36.87 235.09 -36.87 235.09 -36.74 234.16 C-34.95 223 -31.51 212.13 -27.14 201.72 C-26.25 199.59 -25.39 197.44 -24.55 195.28 C-18.4 179.66 -10.74 164.88 -1.33 150.97 C0.25 148.62 1.82 146.27 3.38 143.91 C4.57 142.15 5.75 140.39 6.94 138.62 C7.51 137.77 8.07 136.92 8.66 136.04 C9.19 135.26 9.73 134.47 10.28 133.66 C10.75 132.96 11.23 132.25 11.72 131.52 C12.35 130.77 12.35 130.77 13 130 C13.66 130 14.32 130 15 130 C15.25 129.44 15.5 128.89 15.76 128.31 C20.57 119.36 28.79 111.88 35.97 104.77 C37.47 103.28 38.96 101.78 40.44 100.28 C41.4 99.33 42.35 98.38 43.31 97.43 C44.16 96.57 45.02 95.72 45.9 94.84 C48 93 48 93 50 93 C50 92.34 50 91.68 50 91 C51.9 89.27 51.9 89.27 54.38 87.38 C55.59 86.43 55.59 86.43 56.84 85.46 C59 84 59 84 61 84 C61 83.34 61 82.68 61 82 C62.63 80.66 62.63 80.66 64.91 79.14 C66.15 78.3 66.15 78.3 67.41 77.45 C68.29 76.87 69.16 76.29 70.06 75.69 C71.76 74.55 73.46 73.4 75.16 72.26 C75.99 71.71 76.81 71.16 77.66 70.59 C79.74 69.18 81.78 67.73 83.81 66.26 C87.38 63.73 91.03 61.7 94.89 59.66 C97.03 58.52 99.16 57.35 101.27 56.16 C128.35 40.99 158.52 32.11 189 27 C190.03 26.82 191.06 26.63 192.12 26.45 C204.66 24.47 217.27 24.56 229.94 24.56 C231.13 24.56 232.32 24.56 233.55 24.56 C252.83 24.55 271.15 25.85 290 30 C290.88 30.19 291.75 30.37 292.66 30.56 C297.04 31.5 301.2 32.68 305.43 34.16 C308.53 35.17 311.66 36.02 314.81 36.88 C320.37 38.45 325.61 40.36 330.9 42.67 C334.25 44.11 337.65 45.39 341.06 46.69 C352.9 51.3 364.01 57.66 375 64 C375 64.66 375 65.32 375 66 C375.55 66.1 376.1 66.21 376.67 66.32 C379.5 67.15 381.73 68.43 384.25 69.94 C385.14 70.46 386.03 70.99 386.95 71.53 C387.63 72.01 388.3 72.5 389 73 C389 73.66 389 74.32 389 75 C389.73 75.26 390.46 75.51 391.21 75.78 C394.14 77.06 396.17 78.53 398.62 80.56 C399.49 81.28 400.36 81.99 401.25 82.72 C402.16 83.47 403.07 84.23 404 85 C404.93 85.74 405.86 86.48 406.81 87.25 C412 91.4 416.85 95.66 421.44 100.47 C422.94 102.1 422.94 102.1 425 103 C425 103.66 425 104.32 425 105 C425.66 105 426.32 105 427 105 C428.34 106.33 428.34 106.33 429.94 108.25 C432.92 111.77 436.02 115.15 439.19 118.5 C445.74 125.54 451.37 133.22 457 141 C457.69 141.94 458.39 142.88 459.1 143.86 C462.64 148.76 465.65 153.8 468.45 159.16 C469.68 161.42 470.98 163.54 472.37 165.7 C475.29 170.34 477.66 175.18 480 180.12 C480.44 181.05 480.87 181.97 481.32 182.92 C484.21 189.08 486.74 195.23 488.87 201.7 C489.81 204.44 490.84 207.08 491.94 209.76 C493.98 214.82 495.59 219.93 497.06 225.19 C497.32 226.1 497.58 227.01 497.84 227.95 C499.96 235.57 501.63 243.2 503 251 C503.27 252.43 503.27 252.43 503.55 253.88 C504.1 256.92 504.57 259.95 505 263 C505.09 263.63 505.18 264.25 505.28 264.9 C512.15 313.96 504.93 368.44 483 413 C482.38 414.33 481.77 415.67 481.16 417 C476.6 426.97 471.51 436.52 466 446 C465.34 446 464.68 446 464 446 C463.89 446.58 463.77 447.16 463.65 447.76 C462.95 450.17 462.01 451.74 460.57 453.79 C460.08 454.48 459.6 455.18 459.1 455.89 C458.59 456.61 458.09 457.32 457.56 458.06 C456.56 459.49 455.57 460.92 454.57 462.35 C454.12 462.98 453.68 463.61 453.22 464.25 C452.13 465.82 451.06 467.41 450 469 C449.34 469 448.68 469 448 469 C447.77 469.7 447.55 470.4 447.31 471.12 C445.66 474.74 443.71 477.09 441 480 C440.34 480 439.68 480 439 480 C438.77 480.54 438.55 481.07 438.31 481.62 C436.54 484.82 434.46 487.29 432 490 C431.34 490 430.68 490 430 490 C429.77 490.56 429.55 491.11 429.31 491.69 C427.62 494.66 425.53 496.72 423 499 C422.34 499 421.68 499 421 499 C421 499.66 421 500.32 421 501 C420.34 501 419.68 501 419 501 C419 501.66 419 502.32 419 503 C417.66 504.25 417.66 504.25 415.77 505.65 C414.73 506.44 414.73 506.44 413.66 507.24 C412.91 507.8 412.15 508.36 411.38 508.94 C409.82 510.11 408.26 511.28 406.7 512.46 C405.92 513.05 405.13 513.64 404.32 514.25 C400.89 516.84 397.5 519.47 394.12 522.12 C393.55 522.57 392.97 523.02 392.38 523.48 C389.77 525.54 387.32 527.62 385 530 C391.8 542.58 398.69 555.1 405.81 567.5 C406.33 568.41 406.85 569.32 407.38 570.25 C407.84 571.05 408.3 571.85 408.77 572.67 C410.03 575.06 411.04 577.47 412 580 C423.38 572.64 434.39 565.22 443.66 555.21 C445 554 445 554 447 554 C447 553.34 447 552.68 447 552 C447.66 552 448.32 552 449 552 C449 551.34 449 550.68 449 550 C450.49 548.69 452.05 547.46 453.62 546.25 C463.34 538.47 472.57 529.68 479.77 519.48 C480.17 518.99 480.58 518.5 481 518 C481.66 518 482.32 518 483 518 C483.41 517.11 483.41 517.11 483.84 516.2 C484.94 514.12 486.09 512.53 487.62 510.74 C488.39 509.82 488.39 509.82 489.19 508.87 C489.75 508.21 490.3 507.55 490.88 506.88 C500.8 494.88 509.14 481.83 517 468.41 C518.21 466.34 519.45 464.28 520.72 462.25 C530.13 446.96 537.1 429.92 543 413 C550.55 414.74 558.1 416.48 565.65 418.23 C567.72 418.7 569.8 419.18 571.87 419.66 C574.25 420.21 576.62 420.76 579 421.31 C579.69 421.47 580.38 421.63 581.1 421.79 C585.77 422.89 585.77 422.89 588 424 C586.39 431.84 583.95 438.73 580.46 445.93 C579.22 448.53 578.14 451.11 577.12 453.81 C569.08 474.37 557.23 494.04 544.86 512.26 C543.63 514.07 542.42 515.9 541.24 517.74 C540.71 518.57 540.17 519.4 539.62 520.25 C539.16 520.98 538.7 521.7 538.23 522.45 C537.62 523.22 537.62 523.22 537 524 C536.34 524 535.68 524 535 524 C534.73 524.74 534.46 525.49 534.19 526.25 C533.05 528.89 531.91 530.86 530 533 C529.34 533 528.68 533 528 533 C527.73 533.74 527.46 534.49 527.19 535.25 C526.05 537.89 524.91 539.86 523 542 C522.34 542 521.68 542 521 542 C520.76 542.56 520.52 543.11 520.28 543.69 C518.71 546.52 516.77 548.63 514.56 551 C511.3 554.53 511.3 554.53 508.34 558.31 C507.68 559.15 507.68 559.15 507 560 C506.34 560 505.68 560 505 560 C505 560.66 505 561.32 505 562 C504.34 562 503.68 562 503 562 C502.73 562.64 502.46 563.28 502.19 563.94 C501 566 501 566 498 567 C498 567.66 498 568.32 498 569 C497.34 569 496.68 569 496 569 C495.73 569.64 495.46 570.28 495.19 570.94 C494 573 494 573 491 574 C491 574.66 491 575.32 491 576 C489.53 577.48 489.53 577.48 487.5 579.19 C483.83 582.3 480.23 585.48 476.66 588.71 C475 590 475 590 473 590 C473 590.66 473 591.32 473 592 C470.93 593.63 468.86 595.14 466.69 596.62 C465.39 597.53 464.09 598.44 462.79 599.35 C461.81 600.02 461.81 600.02 460.82 600.71 C458.38 602.44 456.01 604.25 453.62 606.06 C448.66 609.7 443.43 612.64 438.03 615.58 C433.75 617.94 429.77 620.49 425.81 623.38 C420.09 627.42 414.15 630.9 408 634.25 C407.09 634.76 406.18 635.28 405.25 635.81 C404.38 636.27 403.52 636.73 402.62 637.2 C401.85 637.62 401.08 638.04 400.29 638.47 C398 639 398 639 395.41 637.93 C392.74 635.79 391.43 633.95 389.76 630.97 C389.17 629.94 388.59 628.92 387.99 627.86 C387.07 626.2 387.07 626.2 386.12 624.5 C385.47 623.33 384.81 622.16 384.14 621 C382.42 617.94 380.71 614.88 379.01 611.82 C377.4 608.93 375.79 606.04 374.18 603.15 C371.67 598.66 369.18 594.16 366.69 589.66 C363.13 583.22 359.54 576.79 355.94 570.38 C355.37 569.36 354.8 568.34 354.21 567.29 C353.06 565.24 351.91 563.19 350.76 561.13 C348.95 557.9 347.14 554.67 345.33 551.44 C344.42 549.82 344.42 549.82 343.49 548.17 C342.31 546.04 341.12 543.92 339.93 541.79 C337.35 537.17 334.76 532.56 332.12 527.98 C331.69 527.23 331.27 526.49 330.83 525.72 C330.05 524.37 329.27 523.02 328.49 521.68 C326.89 518.88 326 517.28 326 514 C326.99 513.52 327.99 513.03 329.01 512.53 C346.44 503.96 363.05 494.52 378 482 C378.54 481.55 379.08 481.1 379.63 480.64 C403.58 460.65 424.71 436.44 438 408 C438.65 406.72 439.3 405.44 439.96 404.17 C446.33 391.77 451.06 379.26 454.88 365.86 C455.69 363.01 456.6 360.22 457.62 357.44 C460.9 347.83 462.21 337.34 462.79 327.26 C463 325 463 325 464 323 C464.09 321.53 464.13 320.06 464.13 318.58 C464.13 317.67 464.14 316.75 464.14 315.81 C464.14 314.82 464.13 313.83 464.13 312.81 C464.13 311.8 464.13 310.79 464.14 309.74 C464.14 307.6 464.13 305.45 464.13 303.31 C464.13 300.01 464.13 296.72 464.14 293.43 C464.14 291.35 464.13 289.27 464.13 287.19 C464.13 286.2 464.14 285.21 464.14 284.19 C464.13 282.82 464.13 282.82 464.13 281.42 C464.13 280.61 464.13 279.8 464.13 278.97 C464.12 276.92 464.12 276.92 463 275 C462.84 273.29 462.72 271.59 462.62 269.88 C461.85 259.84 460.28 249.54 456.75 240.09 C455.68 237.1 454.87 234.05 454 231 C453.06 227.85 452.1 224.7 451.12 221.56 C450.88 220.75 450.64 219.95 450.39 219.12 C448.72 213.77 446.61 208.94 444 204 C443.35 202.7 442.71 201.41 442.07 200.11 C434.36 184.5 434.36 184.5 425.1 169.78 C424 168 424 168 424 166 C423.34 166 422.68 166 422 166 C421.07 164.65 420.14 163.3 419.27 161.91 C415.92 156.86 412.01 152.15 408.06 147.56 C406 145 406 145 406 143 C405.34 143 404.68 143 404 143 C402.38 141.63 402.38 141.63 401 140 C401 139.34 401 138.68 401 138 C400.34 138 399.68 138 399 138 C397.31 136.02 395.65 134.02 394 132 C393.34 131.67 392.68 131.34 392 131 C392 130.34 392 129.68 392 129 C391.34 129 390.68 129 390 129 C390 128.34 390 127.68 390 127 C389.46 126.76 388.91 126.53 388.35 126.29 C385.38 124.66 382.97 122.62 380.38 120.44 C376.89 117.41 376.89 117.41 373 115 C373 114.34 373 113.68 373 113 C372.14 112.59 372.14 112.59 371.27 112.18 C368.95 110.97 366.83 109.63 364.66 108.17 C355.64 102.19 346.83 96.55 337 92 C335.06 91 333.12 90 331.19 89 C320.82 83.84 310.3 79.89 299.12 76.87 C296.56 76.16 294.12 75.35 291.62 74.44 C285.56 72.36 279.2 71.42 272.91 70.34 C271.27 70.05 269.64 69.73 268 69.4 C241.22 64.27 209.64 65.23 183 71 C182.67 71.33 182.34 71.66 182 72 C181.01 72.12 180.02 72.25 179 72.38 C175.35 72.85 172.11 73.9 168.64 75.12 C165.5 76.17 162.32 77.01 159.12 77.88 C153.66 79.41 148.67 81.34 143.56 83.79 C141.15 84.93 138.74 85.88 136.25 86.81 C130.95 88.87 126.04 91.58 121.09 94.36 C116.31 97 116.31 97 113 97 C113 97.66 113 98.32 113 99 C112.47 99.28 111.93 99.56 111.38 99.85 C105.98 102.76 101.01 106.01 96.07 109.64 C94 111 94 111 92 111 C92 111.66 92 112.32 92 113 C90.54 114.29 90.54 114.29 88.62 115.62 C88 116.07 87.37 116.52 86.73 116.98 C85 118 85 118 83 118 C83 118.66 83 119.32 83 120 C81.63 121.14 81.63 121.14 79.68 122.46 C73.97 126.61 69.14 131.57 64.19 136.56 C63.24 137.5 62.29 138.45 61.34 139.39 C60.44 140.29 59.53 141.2 58.61 142.13 C57.79 142.94 56.98 143.76 56.14 144.6 C53.91 146.94 53.91 146.94 52.34 149.8 C51.9 150.53 51.45 151.25 51 152 C50.34 152 49.68 152 49 152 C48.66 152.77 48.66 152.77 48.31 153.56 C46.52 156.9 44.5 160.15 42 163 C41.34 163 40.68 163 40 163 C39.88 163.59 39.77 164.19 39.64 164.8 C38.81 167.66 37.11 169.68 35.34 172.05 C33.18 175.19 31.63 178.56 30 182 C29.34 182 28.68 182 28 182 C27.87 182.58 27.74 183.17 27.6 183.77 C27.03 185.9 26.3 187.73 25.36 189.72 C25.04 190.42 24.71 191.12 24.37 191.84 C24.02 192.57 23.67 193.31 23.31 194.06 C22.77 195.21 22.77 195.21 22.22 196.38 C20.24 200.53 18.17 204.57 15.88 208.56 C3.07 231.72 -1.19 259.15 -5 285 C-6.57 285.03 -8.14 285.04 -9.71 285.06 C-10.58 285.07 -11.45 285.08 -12.35 285.09 C-14.92 285 -17.19 284.64 -19.69 284.06 C-23.66 283.18 -27.44 282.81 -31.5 282.62 C-40.88 282.09 -50.07 280.52 -59.34 279.04 C-65.41 278.08 -71.48 277.24 -77.56 276.44 C-84.42 275.53 -91.22 274.48 -98.01 273.2 C-102.77 272.33 -107.53 271.65 -112.32 271.03 C-114.28 270.77 -114.28 270.77 -116.28 270.51 C-118.89 270.17 -121.5 269.85 -124.11 269.53 C-125.32 269.38 -126.52 269.22 -127.77 269.06 C-128.85 268.93 -129.93 268.8 -131.04 268.66 C-135.83 267.59 -140.07 265 -143.12 261.09 C-145.24 256.06 -143.78 250.25 -143 245 C-142.89 244.24 -142.78 243.49 -142.67 242.71 C-140.7 229.42 -140.7 229.42 -138.98 223.46 C-138.1 220.36 -137.55 217.35 -137.11 214.16 C-133.63 189.3 -123.93 164.48 -113 142 C-112.39 140.67 -111.78 139.34 -111.17 138.01 C-107.14 129.19 -102.73 120.69 -97.88 112.29 C-96.51 109.89 -95.2 107.5 -94 105 C-93.34 105 -92.68 105 -92 105 C-91.91 104.47 -91.83 103.94 -91.74 103.39 C-90.74 100.16 -88.98 97.55 -87.12 94.75 C-86.73 94.15 -86.34 93.55 -85.94 92.94 C-84.63 90.95 -83.32 88.98 -82 87 C-81.52 86.27 -81.03 85.54 -80.53 84.78 C-79.05 82.56 -77.56 80.34 -76.06 78.12 C-75.59 77.42 -75.12 76.71 -74.63 75.98 C-73.47 74.28 -72.24 72.64 -71 71 C-70.34 71 -69.68 71 -69 71 C-68.74 70.26 -68.49 69.52 -68.22 68.76 C-66.94 65.87 -65.59 64.16 -63.44 61.88 C-60.36 58.53 -57.46 55.12 -54.62 51.56 C-50.7 46.71 -46.46 42.33 -41.97 38 C-39.95 36.15 -39.95 36.15 -39 34 C-38.34 34 -37.68 34 -37 34 C-37 33.34 -37 32.68 -37 32 C-35.5 30.52 -35.5 30.52 -33.44 28.81 C-30.73 26.51 -28.15 24.19 -25.69 21.62 C-21.14 17 -16.05 13.05 -11 9 C-8.93 7.32 -6.87 5.63 -4.81 3.94 C-3.21 2.62 -1.6 1.31 0 0 Z " fill="#FEFEFE" transform="translate(414,322)"/>
<path d="M0 0 C1.76 0 1.76 0 3.55 0.01 C20.53 0.06 37.17 0.4 53.94 3.31 C55.15 3.52 56.37 3.72 57.62 3.93 C117.34 14.14 174.32 37.44 221.94 75.31 C222.86 76.05 223.79 76.78 224.74 77.54 C230.1 81.85 235.28 86.33 240.36 90.98 C242.46 92.88 244.59 94.74 246.73 96.59 C251 100.31 255.01 104.24 259 108.25 C259.67 108.91 260.34 109.58 261.03 110.26 C313.74 163.08 346.87 235.03 357.94 308.31 C358.18 309.92 358.18 309.92 358.43 311.56 C360.81 327.96 361.22 344.27 361.25 360.81 C361.26 362.25 361.26 362.25 361.26 363.73 C361.28 374.11 361 384.43 360.11 394.78 C360.04 395.64 359.97 396.49 359.9 397.38 C359.29 403.6 358.07 408.78 353.94 413.69 C350.19 416.73 346.61 416.71 341.94 416.31 C337.48 414 335.16 411.78 332.94 407.31 C332.61 404.62 332.61 404.62 332.69 401.75 C332.7 400.82 332.72 399.89 332.73 398.93 C332.85 396.96 332.97 394.98 333.17 393.01 C334.21 382.44 334.18 371.86 334.19 361.25 C334.19 360.23 334.19 359.2 334.19 358.15 C334.17 342.01 333.57 326.27 330.94 310.31 C330.77 309.25 330.59 308.18 330.42 307.09 C320.02 244.3 292.49 187.25 250.94 139.31 C250.25 138.51 249.55 137.7 248.84 136.87 C238.18 124.73 226.7 113.23 213.94 103.31 C212.88 102.44 211.83 101.56 210.78 100.67 C194.26 86.9 176 75.22 156.94 65.31 C156.28 64.97 155.63 64.62 154.96 64.27 C76 22.78 -16.47 15.93 -101.3 42.22 C-112.37 45.76 -123.15 49.77 -133.76 54.52 C-139.17 56.86 -143.16 57.9 -149.06 57.31 C-153.12 55.21 -155.38 53.54 -157.06 49.31 C-157.43 46.95 -157.43 46.95 -157.5 44.44 C-157.54 43.62 -157.58 42.79 -157.62 41.95 C-156.81 38.13 -154.97 35.78 -152.06 33.31 C-148.88 31.4 -145.55 29.98 -142.12 28.56 C-141.13 28.14 -140.13 27.72 -139.1 27.29 C-113.69 16.81 -87.36 9.34 -60.31 4.56 C-58.63 4.26 -58.63 4.26 -56.91 3.96 C-37.94 0.78 -19.21 -0.06 0 0 Z " fill="#FEFEFE" transform="translate(643.0625,260.6875)"/>
<path d="M0 0 C3.63 2.29 6.95 4.76 10.25 7.5 C18.14 13.9 26.9 20.45 36 25 C34.36 30.3 30.99 34.32 27.69 38.69 C26.41 40.4 25.13 42.11 23.86 43.82 C23.21 44.69 22.56 45.56 21.9 46.45 C19.06 50.27 16.28 54.13 13.5 58 C9.04 64.2 4.54 70.36 0 76.5 C-6.74 85.62 -13.38 94.8 -20 104 C-27.2 114.01 -34.44 123.98 -41.77 133.89 C-47.36 141.47 -52.88 149.1 -58.38 156.75 C-60.03 159.05 -61.69 161.34 -63.35 163.64 C-63.9 164.4 -64.46 165.17 -65.03 165.95 C-66.13 167.47 -67.23 168.99 -68.33 170.51 C-70.82 173.96 -73.3 177.42 -75.76 180.89 C-80.03 186.92 -84.38 192.83 -89.06 198.55 C-91.88 202.11 -94.46 205.82 -97.04 209.55 C-99.15 212.18 -101.23 214.09 -104 216 C-108.14 216.18 -110.3 214.95 -113.31 212.31 C-113.89 211.78 -114.46 211.24 -115.05 210.69 C-117.91 208.21 -121.07 206.29 -124.28 204.3 C-124.85 203.87 -125.41 203.44 -126 203 C-126 202.34 -126 201.68 -126 201 C-126.56 200.73 -127.11 200.46 -127.69 200.19 C-130.21 198.89 -132.64 197.58 -135 196 C-135 195.34 -135 194.68 -135 194 C-135.54 193.77 -136.07 193.54 -136.62 193.31 C-139.74 191.59 -142.32 189.37 -145 187.06 C-145.57 186.58 -146.13 186.1 -146.72 185.6 C-151.19 181.75 -155.56 177.8 -159.89 173.79 C-162.52 171.34 -165.19 168.95 -167.94 166.62 C-170.79 164.21 -173.47 161.76 -176 159 C-176 158.34 -176 157.68 -176 157 C-176.66 157 -177.32 157 -178 157 C-179.3 155.71 -179.3 155.71 -180.88 153.81 C-183.23 151.03 -185.63 148.3 -188.13 145.64 C-188.67 145.06 -189.22 144.48 -189.78 143.89 C-190.88 142.72 -191.98 141.55 -193.09 140.39 C-197 136.22 -197 136.22 -197 134 C-197.66 134 -198.32 134 -199 134 C-200.73 132.1 -200.73 132.1 -202.62 129.62 C-203.57 128.41 -203.57 128.41 -204.54 127.16 C-206 125 -206 125 -206 123 C-206.66 123 -207.32 123 -208 123 C-209.4 121.47 -209.4 121.47 -211.02 119.29 C-211.62 118.49 -212.23 117.68 -212.85 116.85 C-213.5 115.97 -214.15 115.09 -214.81 114.19 C-215.48 113.29 -216.15 112.39 -216.84 111.46 C-226.5 98.36 -235.63 84.96 -244 71 C-244.61 70.04 -245.22 69.08 -245.85 68.09 C-246.42 67.19 -246.98 66.3 -247.56 65.38 C-248.06 64.6 -248.56 63.82 -249.07 63.02 C-250 61 -250 61 -249 58 C-247.3 56.7 -247.3 56.7 -245.09 55.4 C-244.27 54.91 -243.45 54.43 -242.61 53.92 C-241.73 53.41 -240.85 52.9 -239.94 52.38 C-239.04 51.85 -238.14 51.32 -237.22 50.78 C-235.38 49.71 -233.53 48.63 -231.69 47.56 C-229.19 46.11 -226.72 44.63 -224.25 43.14 C-222.84 42.3 -221.42 41.46 -220 40.62 C-219.35 40.23 -218.7 39.83 -218.03 39.42 C-213.64 36.88 -213.64 36.88 -210.79 37.42 C-208.36 39.57 -207 41.88 -205.38 44.69 C-204.67 45.87 -203.97 47.06 -203.26 48.24 C-202.89 48.86 -202.53 49.48 -202.15 50.12 C-199.05 55.2 -195.67 60.1 -192.33 65.03 C-191.43 66.37 -190.53 67.71 -189.63 69.05 C-183.8 77.73 -177.77 86.02 -171 94 C-169.33 96 -167.66 98 -166 100 C-165.26 100.89 -164.51 101.77 -163.75 102.69 C-162 105 -162 105 -161 108 C-160.34 108 -159.68 108 -159 108 C-157.34 109.61 -157.34 109.61 -155.5 111.75 C-154.89 112.45 -154.28 113.14 -153.66 113.86 C-152.12 115.84 -151.03 117.72 -150 120 C-149.34 120 -148.68 120 -148 120 C-146.52 121.5 -146.52 121.5 -144.81 123.56 C-139.15 130.66 -139.15 130.66 -132 136 C-132 136.66 -132 137.32 -132 138 C-131.43 138.26 -130.86 138.52 -130.27 138.78 C-127.79 140.11 -125.87 141.65 -123.75 143.5 C-123.04 144.11 -122.34 144.72 -121.61 145.34 C-120 147 -120 147 -120 149 C-119.13 149.43 -119.13 149.43 -118.25 149.88 C-116.17 150.92 -114.08 151.96 -112 153 C-107.67 148.08 -103.73 143.02 -99.94 137.69 C-98.79 136.09 -97.64 134.48 -96.49 132.88 C-95.91 132.07 -95.33 131.26 -94.73 130.42 C-92.02 126.63 -89.29 122.84 -86.56 119.06 C-86.03 118.32 -85.5 117.58 -84.95 116.82 C-80.42 110.55 -75.83 104.33 -71.23 98.11 C-65.09 89.78 -59.04 81.4 -53 73 C-45.73 62.9 -38.42 52.83 -31.02 42.82 C-27.24 37.71 -23.52 32.56 -19.84 27.37 C-15.52 21.29 -11.08 15.3 -6.64 9.31 C-5.78 8.14 -5.78 8.14 -4.91 6.96 C-4.39 6.27 -3.88 5.57 -3.35 4.86 C-2.2 3.27 -1.09 1.64 0 0 Z " fill="#FEFEFE" transform="translate(487,798)"/>
<path d="M0 0 C4.22 2.77 8.36 5.64 12.45 8.61 C13.78 9.57 13.78 9.57 15.14 10.55 C18.57 13.61 21.49 17.09 24.45 20.61 C25.27 21.55 26.09 22.48 26.94 23.45 C35.73 34.03 41.34 49.85 40.45 63.61 C39.11 76.36 33.96 85.98 24.45 94.61 C11.54 104.42 -4.69 107.27 -20.55 105.61 C-31.02 104.11 -41.07 101.35 -50.55 96.61 C-51.17 96.3 -51.79 95.99 -52.43 95.67 C-62.08 90.76 -69.91 85.34 -77.55 77.61 C-78.45 76.75 -79.36 75.89 -80.29 75 C-82.55 72.61 -82.55 72.61 -83.55 69.61 C-84.21 69.61 -84.87 69.61 -85.55 69.61 C-87.85 67.05 -88.55 66.13 -88.55 62.61 C-89.21 62.61 -89.87 62.61 -90.55 62.61 C-97.56 50.15 -101.93 36.43 -99.04 22.08 C-98.35 19.83 -97.53 17.75 -96.55 15.61 C-95.99 14.34 -95.99 14.34 -95.41 13.05 C-93.02 7.96 -90.48 3.65 -86.55 -0.39 C-85.89 -0.39 -85.23 -0.39 -84.55 -0.39 C-84.55 -1.05 -84.55 -1.71 -84.55 -2.39 C-59.92 -21.09 -24.66 -15.41 0 0 Z M-67.11 22.86 C-69.87 28.13 -70.01 32.7 -68.68 38.36 C-66.5 44.92 -62.15 50.53 -57.55 55.61 C-56.89 55.61 -56.23 55.61 -55.55 55.61 C-55.22 56.6 -54.89 57.59 -54.55 58.61 C-51.92 61.02 -51.92 61.02 -48.55 61.61 C-48.55 62.27 -48.55 62.93 -48.55 63.61 C-37.21 72.04 -21.74 76.88 -7.55 75.61 C-0.23 74.13 5.18 72.02 9.45 65.61 C10.91 56.52 8.65 50 3.45 42.61 C-6.7 28.99 -22.71 19.09 -39.55 16.61 C-49.71 15.75 -59.15 15.87 -67.11 22.86 Z " fill="#FEFEFE" transform="translate(634.55078125,616.390625)"/>
<path d="M0 0 C5.16 4.49 8.6 8.44 9.2 15.33 C9.35 22.94 7.8 28.8 2.57 34.64 C-2.33 38.87 -8.33 40.73 -14.74 40.38 C-21.63 39.22 -26.43 36.25 -30.81 30.88 C-34.62 24.86 -34.7 18.94 -34 12 C-32.23 5.26 -27.85 1.46 -22 -2 C-14.03 -5.58 -7.33 -4.25 0 0 Z " fill="#FEFEFE" transform="translate(738,666)"/>
<path d="M0 0 C4.98 3.19 8.26 7.36 10.68 12.71 C11.71 20.3 11.33 27.3 6.75 33.67 C1.99 38.89 -3.28 41.17 -10.3 41.52 C-16.9 41.19 -22.5 38.79 -27.31 34.25 C-31.43 29.19 -33.22 23.63 -32.76 17.14 C-31.62 10.02 -28.54 4.77 -22.82 0.39 C-15.23 -3.8 -7.71 -3.77 0 0 Z " fill="#FEFEFE" transform="translate(541.8203125,538.60546875)"/>
<path d="M0 0 C4.78 1.16 8.33 3.22 12.48 5.81 C13.21 6.26 13.95 6.7 14.71 7.16 C16.13 8.03 17.55 8.9 18.97 9.77 C20.56 10.75 22.16 11.72 23.76 12.68 C27.48 14.91 27.48 14.91 28.85 16.93 C29.51 23.06 29.51 23.06 27.58 25.62 C24.87 27.67 22.67 27.44 19.36 27.33 C14.81 26.62 11.09 24.53 7.1 22.31 C6.28 21.88 5.45 21.46 4.61 21.02 C-1.42 17.76 -5.83 14.52 -8.27 7.87 C-8.15 4.93 -8.15 4.93 -6.15 2 C-3.15 -0.07 -3.15 -0.07 0 0 Z " fill="#FEFEFE" transform="translate(595.1484375,648.06640625)"/>
<path d="M0 0 C0.33 1.32 0.66 2.64 1 4 C0.34 3.34 -0.32 2.68 -1 2 C-0.67 1.34 -0.34 0.68 0 0 Z " fill="#FEFEFE" transform="translate(156,563)"/>
<path d="M0 0 C3 1 3 1 3 1 Z " fill="#FEFEFE" transform="translate(676,1113)"/>
</svg>
